<?xml version="1.0" standalone="no"?><!DOCTYPE svg PUBLIC "-//W3C//DTD SVG 1.1//EN" "http://www.w3.org/Graphics/SVG/1.1/DTD/svg11.dtd"><svg t="1634281191403" class="icon" viewBox="0 0 1024 1024" version="1.1" xmlns="http://www.w3.org/2000/svg" p-id="3073" xmlns:xlink="http://www.w3.org/1999/xlink" width="200" height="200"><defs><style type="text/css"></style></defs><path d="M297 259.6v488.8L704.8 944V64z" fill="#4BA0F9" p-id="3074"></path><path d="M421.4 364.5h159c15.4 0 27.8 12.5 27.8 27.8 0 15.4-12.5 27.8-27.8 27.8h-159c-15.4 0-27.8-12.5-27.8-27.8 0-15.4 12.5-27.8 27.8-27.8zM439.3 475.8h123.3c15.4 0 27.9 12.5 27.9 27.9v0.5c0 15.4-12.5 27.9-27.9 27.9H439.3c-15.4 0-27.9-12.5-27.9-27.9v-0.5c0-15.4 12.5-27.9 27.9-27.9zM421.4 587.8h159c15.4 0 27.8 12.5 27.8 27.8 0 15.4-12.5 27.8-27.8 27.8h-159c-15.4 0-27.8-12.5-27.8-27.8s12.5-27.8 27.8-27.8z" fill="#F7F5F5" p-id="3075"></path></svg>